# xmcd
#
# Track frame offsets:
#	150
#	20761
#	41973
#	63722
#	85352
#	104926
#	125533
#	148481
#	172003
#	195103
#	223502
#	248569
#
# Disc length: 3573 seconds
#
# Revision: 1
# Processed by: cddbd v1.5.1PL2 Copyright (c) Steve Scherf et al.
# Submitted via: EasyCDDAExtractor 6.0.0.1
#
DISCID=be0df30c
DTITLE=Sutekh - Born Again: Collected Remixes 1999-2005 [CD 1)
DYEAR=2005
DGENRE=Electronic
TTITLE0=Hanne Hukkelberg - Easy (In C mix)
TTITLE1=Kammerflimmer Kollektief - Absencen (remix)
TTITLE2=TV Pow - Friendship Patrol (Guitar Heroes mix)
TTITLE3=o.lamm - Bed of the Cylinder in Three Concentric Zones
TTITLE4=Ammoncontact - Baila con los Niño(s) (Trabajadores mix)
TTITLE5=Wobbly - Clawing Your Eyes Out Down To Your Peady
TTITLE6=Ben Nevile - Vancouver and Fairfield (remix)
TTITLE7=LOD - 4WD (remix)
TTITLE8=Dapayk - Tyffaniecell (March of the Valkyries mix)
TTITLE9=Chessie - Daylight (remix)
TTITLE10=Murcof - Memoria (Trisagon mix)
TTITLE11=Ned Sublette and Lawrence Weiner - Big Bang/New Flora (Death Row mix)
EXTD=
EXTT0=
EXTT1=
EXTT2=
EXTT3=
EXTT4=
EXTT5=
EXTT6=
EXTT7=
EXTT8=
EXTT9=
EXTT10=
EXTT11=
PLAYORDER=
